<svg xmlns="http://www.w3.org/2000/svg" xmlns:xlink="http://www.w3.org/1999/xlink" width="195" height="160" viewBox="0 0 195 160">
    <defs>
        <path id="a" d="M0 128.904h92.307V0H0z"/>
        <path id="c" d="M.447 0v37.627l9.99-12.19 9.989 12.19V0z"/>
        <path id="e" d="M0 0l46 46H0z"/>
        <path id="g" d="M0 0l46 46H0z"/>
    </defs>
    <g fill="none" fill-rule="evenodd">
        <path fill="#FFF" d="M52 38h122v122H52z"/>
        <path fill="#3B5A33" d="M9.666 139.69h92.307V10.787H9.666z"/>
        <path fill="#7FD16B" d="M5.03 134.999h92.306V6.095H5.03z"/>
        <g>
            <mask id="b" fill="#fff">
                <use xlink:href="#a"/>
            </mask>
            <use fill="#BBECB0" transform="matrix(-1 0 0 1 92.307 0)" xlink:href="#a"/>
            <g stroke="#7FD16B" stroke-width="1.44" mask="url(#b)">
                <path d="M93.455 94.424c-48.684 8.94-75.87-2.734-61.213-24.315C46.899 48.527 53.284 13.01 24.059 1.495 4.576-6.182 26.808-20.08 90.756-40.2c34.256 83.79 35.155 128.664 2.7 134.624z"/>
                <path d="M131.937 75.017c-58.035 7.958-90.442-2.433-72.97-21.64C76.44 34.167 84.05 2.557 49.212-7.692 25.987-14.523 52.49-26.893 128.72-44.8c40.835 74.574 41.907 114.513 3.217 119.817z"/>
                <path d="M98.537 107.108C37.334 140.291-26.386 109.19-5.32 88.05c21.066-21.14 30.243-55.929-11.761-67.208-28.003-7.52 4.311-23.073 96.944-46.66 53.25 66.496 59.475 110.804 18.674 132.926z"/>
            </g>
        </g>
        <g transform="translate(12.75)">
            <mask id="d" fill="#fff">
                <use xlink:href="#c"/>
            </mask>
            <use fill="#3B5A33" xlink:href="#c"/>
            <path stroke="#15350C" stroke-width="1.6" d="M23.593 9.696C16.952 1.818 3.09-3.387-17.991-5.92" mask="url(#d)"/>
        </g>
        <g transform="translate(149 114)">
            <mask id="f" fill="#fff">
                <use xlink:href="#e"/>
            </mask>
            <use fill="#BBECB0" transform="rotate(180 23 23)" xlink:href="#e"/>
            <path fill="#7FD16B" d="M-6.897-7.931H25.62V32H-6.897z" mask="url(#f)"/>
        </g>
        <g transform="translate(149 68)">
            <mask id="h" fill="#fff">
                <use xlink:href="#g"/>
            </mask>
            <use fill="#BBECB0" transform="rotate(180 23 23)" xlink:href="#g"/>
            <path fill="#7FD16B" d="M-6.897-7.931H25.62V33H-6.897z" mask="url(#h)"/>
        </g>
    </g>
</svg>
