<svg xmlns="http://www.w3.org/2000/svg" xmlns:xlink="http://www.w3.org/1999/xlink" width="218" height="166" viewBox="0 0 218 166">
    <defs>
        <ellipse id="a" cx="55" cy="55.2" rx="55" ry="55.2"/>
        <ellipse id="c" cx="45.654" cy="45.82" rx="45.654" ry="45.82"/>
    </defs>
    <g fill="none" fill-rule="evenodd">
        <path fill="#FFF" d="M54 39h122v122H54z"/>
        <circle cx="140" cy="88" r="6" fill="#7FD16B"/>
        <circle cx="140" cy="124" r="6" fill="#7FD16B"/>
        <circle cx="140" cy="160" r="6" fill="#BBECB0"/>
        <circle cx="176" cy="88" r="6" fill="#BBECB0"/>
        <circle cx="176" cy="124" r="6" fill="#BBECB0"/>
        <circle cx="176" cy="160" r="6" fill="#BBECB0"/>
        <circle cx="212" cy="88" r="6" fill="#BBECB0"/>
        <circle cx="212" cy="124" r="6" fill="#BBECB0"/>
        <circle cx="212" cy="160" r="6" fill="#BBECB0"/>
        <path fill="#3B5A33" d="M15.145 92.8H93.26V140l-39.058-29.7L15.145 140z"/>
        <mask id="b" fill="#fff">
            <use xlink:href="#a"/>
        </mask>
        <use fill="#7FD16B" xlink:href="#a"/>
        <path stroke="#BBECB0" stroke-width="1.44" d="M1.187 82.832c48.698 8.941 75.891-2.734 61.23-24.315-14.66-21.582-21.047-57.098 8.186-68.614 19.489-7.676-2.75-21.575-66.716-41.695-34.266 83.79-35.166 128.664-2.7 134.624z" mask="url(#b)"/>
        <path stroke="#BBECB0" stroke-width="1.44" d="M-37.182 66.576c58.051 7.957 90.467-2.434 72.99-21.641-17.476-19.208-25.09-50.818 9.758-61.067 23.232-6.833-3.278-19.202-79.53-37.11C-74.81 21.333-75.883 61.272-37.182 66.577z" mask="url(#b)"/>
        <path stroke="#BBECB0" stroke-width="1.44" d="M17.836 96.05c45.906 24.808 103.19-2.534 83.255-22.533-19.934-19.999-28.619-52.91 11.13-63.581 26.5-7.114-3.739-19.993-90.714-38.638C-11.545 37.927-12.77 79.511 17.836 96.05z" mask="url(#b)"/>
        <g mask="url(#b)">
            <g transform="translate(9.346 9.38)">
                <mask id="d" fill="#fff">
                    <use xlink:href="#c"/>
                </mask>
                <use fill="#BBECB0" xlink:href="#c"/>
                <g stroke="#FFF" stroke-width="1.44" mask="url(#d)">
                    <path d="M-8.16 73.452c48.699 8.94 75.892-2.734 61.231-24.316-14.66-21.581-21.048-57.098 8.185-68.613 19.49-7.677-2.75-21.575-66.716-41.695-34.265 83.789-35.165 128.664-2.7 134.624z"/>
                    <path d="M-46.529 57.196c58.052 7.957 90.468-2.434 72.991-21.642C8.985 16.347 1.372-15.264 36.22-25.513c23.232-6.832-3.278-19.202-79.53-37.109-40.847 74.574-41.92 114.513-3.219 119.818z"/>
                    <path d="M8.49 86.669c45.906 24.808 103.19-2.534 83.255-22.532-19.935-20-28.62-52.91 11.13-63.582 26.499-7.114-3.74-19.993-90.715-38.637C-20.892 28.546-22.115 70.13 8.49 86.668z"/>
                </g>
            </g>
        </g>
    </g>
</svg>
