<svg xmlns="http://www.w3.org/2000/svg" xmlns:xlink="http://www.w3.org/1999/xlink" width="220" height="160" viewBox="0 0 220 160">
    <defs>
        <path id="a" d="M69.88 0L0 38.256 69.88 76.51l69.88-38.255z"/>
    </defs>
    <g fill="none" fill-rule="evenodd">
        <path fill="#FFF" d="M69 38h122v122H69z"/>
        <g>
            <mask id="b" fill="#fff">
                <use xlink:href="#a"/>
            </mask>
            <use fill="#BBECB0" xlink:href="#a"/>
            <g stroke="#FFF" stroke-width="1.44" mask="url(#b)">
                <path d="M13.692 59.624c48.698 8.94 75.892-2.734 61.23-24.315-14.66-21.582-21.047-57.098 8.186-68.614 19.49-7.677-2.75-21.575-66.716-41.695-34.265 83.79-35.165 128.664-2.7 134.624z"/>
                <path d="M-24.757 43.817c58.051 7.958 90.467-2.433 72.99-21.64-17.476-19.209-25.09-50.819 9.758-61.068C81.223-45.723 54.713-58.093-21.539-76-62.385-1.426-63.459 38.513-24.757 43.817z"/>
                <path d="M31.071 72.75c68.923 30.09 103.19-2.533 83.256-22.531-19.935-20-28.62-52.91 11.13-63.582 26.499-7.114-3.74-19.993-90.715-38.637-48.396 63.107-49.62 104.69-3.671 124.75z"/>
            </g>
        </g>
        <path fill="#3B5A33" d="M69.887 76.592l-44.47-24.356V90.49l44.47 24.356 44.469-24.356V52.236zM127.09 45.013v44.058h12.705V38.063z"/>
        <path fill="#7FD16B" d="M69.798 76.592v38.255l44.469-24.356V52.236zM191.402 102.088v57.224c-15.686-.68-28.188-13.23-28.188-28.612 0-15.382 12.502-27.931 28.188-28.612z"/>
        <path fill="#BBECB0" d="M191.417 138.97V81.747c15.686.68 28.188 13.23 28.188 28.611 0 15.382-12.502 27.932-28.188 28.612z"/>
    </g>
</svg>
