<?xml version="1.0" encoding="UTF-8"?>
<svg width="195px" height="160px" viewBox="0 0 195 160" version="1.1" xmlns="http://www.w3.org/2000/svg" xmlns:xlink="http://www.w3.org/1999/xlink">
    <!-- Generator: Sketch 50.2 (55047) - http://www.bohemiancoding.com/sketch -->
    <title>icn--reconnu</title>
    <desc>Created with Sketch.</desc>
    <defs>
        <polygon id="path-1" points="0 128.903569 92.3068615 128.903569 92.3068615 3.92156864e-05 0 3.92156864e-05"></polygon>
        <polygon id="path-3" points="0.447309231 0 0.447309231 37.6270588 10.43664 25.4376471 20.4259708 37.6270588 20.4259708 0"></polygon>
        <polygon id="path-5" points="0 0 46 46 0 46"></polygon>
        <polygon id="path-7" points="0 0 46 46 0 46"></polygon>
    </defs>
    <g id="Maquettes" stroke="none" stroke-width="1" fill="none" fill-rule="evenodd">
        <g id="homepage" transform="translate(-581.000000, -1659.000000)">
            <g id="Group-17" transform="translate(581.000000, 1659.000000)">
                <g id="icn--reconnu">
                    <path d="" id="Path-11" stroke="#979797"></path>
                    <g id="Group-12">
                        <rect id="Rectangle-27-Copy" fill="#FFFFFF" x="52" y="38" width="122" height="122"></rect>
                        <g id="Group-9">
                            <polygon id="Fill-1" fill="#3B5A33" points="9.66646154 139.690235 101.973323 139.690235 101.973323 10.787098 9.66646154 10.787098"></polygon>
                            <polygon id="Fill-2" fill="#7FD16B" points="5.02938462 134.998863 97.3362462 134.998863 97.3362462 6.09533333 5.02938462 6.09533333"></polygon>
                            <g id="Path-7-+-Path-7-+-Path-7-Mask">
                                <mask id="mask-2" fill="white">
                                    <use xlink:href="#path-1"></use>
                                </mask>
                                <use id="Mask" fill="#BBECB0" transform="translate(46.153431, 64.451804) scale(-1, 1) translate(-46.153431, -64.451804) " xlink:href="#path-1"></use>
                                <g id="Group-10" mask="url(#mask-2)" stroke="#7FD16B" stroke-width="1.44">
                                    <g transform="translate(66.171875, 38.700000) scale(-1, 1) translate(-66.171875, -38.700000) translate(-27.828125, -44.800000)" id="Path-7">
                                        <path d="M66.7168113,139.224239 C115.401115,148.164735 142.586787,136.489951 127.930017,114.908544 C113.273248,93.3271378 106.888121,57.8105193 136.113062,46.2952219 C155.596356,38.618357 133.363995,24.7199497 69.4159787,4.6 C35.1603315,88.3891623 34.260609,133.263909 66.7168113,139.224239 Z"></path>
                                        <path d="M28.2347005,119.81743 C86.2694969,127.774595 118.676553,117.383875 101.204748,98.1761259 C83.7329442,78.9683766 76.1214651,47.3580962 110.95946,37.1093227 C134.184789,30.276807 107.682396,17.9070327 31.4522803,0 C-9.38263715,74.5735103 -10.4551637,114.512654 28.2347005,119.81743 Z"></path>
                                        <path d="M61.6353565,151.90829 C122.837754,185.091411 186.557839,153.990128 165.491886,132.850499 C144.425933,111.71087 135.248687,76.921286 177.253253,65.6417097 C205.256297,58.1219922 172.94163,42.568874 80.3092518,18.982355 C27.0583897,85.4775646 20.833758,129.78621 61.6353565,151.90829 Z"></path>
                                    </g>
                                </g>
                            </g>
                            <g id="Path-3" transform="translate(12.750000, 0.000000)">
                                <mask id="mask-4" fill="white">
                                    <use xlink:href="#path-3"></use>
                                </mask>
                                <use id="Mask" fill="#3B5A33" xlink:href="#path-3"></use>
                                <path d="M23.5928935,9.69551332 C16.951974,1.81800035 3.09082469,-3.3869792 -17.9905545,-5.91942536" stroke="#15350C" stroke-width="1.6" mask="url(#mask-4)"></path>
                            </g>
                        </g>
                        <g id="Rectangle" transform="translate(149.000000, 114.000000)">
                            <mask id="mask-6" fill="white">
                                <use xlink:href="#path-5"></use>
                            </mask>
                            <use id="Mask" fill="#BBECB0" transform="translate(23.000000, 23.000000) scale(-1, -1) translate(-23.000000, -23.000000) " xlink:href="#path-5"></use>
                        </g>
                        <g id="Rectangle-Copy" transform="translate(149.000000, 68.000000)">
                            <mask id="mask-8" fill="white">
                                <use xlink:href="#path-7"></use>
                            </mask>
                            <use id="Mask" fill="#BBECB0" transform="translate(23.000000, 23.000000) scale(-1, -1) translate(-23.000000, -23.000000) " xlink:href="#path-7"></use>
                        </g>
                    </g>
                    <polygon id="Path-4" fill="#7FD16B" points="174.004399 138.994495 174.004399 114.029603 149.053973 114.029603"></polygon>
                    <polygon id="Path-4" fill="#7FD16B" points="174.004399 92.9944955 174.004399 68.0296025 149.053973 68.0296025"></polygon>
                </g>
            </g>
        </g>
    </g>
</svg>