<svg xmlns="http://www.w3.org/2000/svg" xmlns:xlink="http://www.w3.org/1999/xlink" width="520" height="484" viewBox="0 0 520 484">
    <defs>
        <ellipse id="a" cx="114.4" cy="114.514" rx="114.4" ry="114.514"/>
        <ellipse id="c" cx="33.54" cy="33.699" rx="33.54" ry="33.699"/>
        <path id="e" d="M0 0h36.4v133.253H0z"/>
        <ellipse id="g" cx="79.56" cy="79.639" rx="79.56" ry="79.639"/>
        <ellipse id="i" cx="66.04" cy="66.106" rx="66.04" ry="66.106"/>
        <path id="k" d="M0 0l44.72 44.765H0z"/>
    </defs>
    <g fill="none" fill-rule="evenodd">
        <path fill="#F2F6F9" d="M135.2 15.066c25.516-18.729 53.774-14.961 64.48 6.997v124.641H135.2V15.066z"/>
        <path stroke="#BBECB0" stroke-width="2.08" d="M260 79.037c-52.879 0-42.262-50.97-73.393-72.543C155.476-15.08 84.002 46.27 74.88 79.037"/>
        <g transform="translate(284.96 194.592)">
            <mask id="b" fill="#fff">
                <use xlink:href="#a"/>
            </mask>
            <use fill="#BBECB0" xlink:href="#a"/>
            <path fill="#FFF" d="M119.6 115.555h123.76v114.514H119.6z" mask="url(#b)"/>
            <path fill="#7FD16B" d="M-32.24 145.745H91.52v114.514H-32.24z" mask="url(#b)"/>
        </g>
        <path fill="#F2F6F9" d="M191.48 308.065L353.6 431.948H23.92z"/>
        <path fill="#0A1650" d="M142.48 344.501h228.8v134.274h-228.8z"/>
        <path fill="#6ED2E1" d="M147.68 349.726h218.4v129.05h-218.4z"/>
        <path fill="#0A1650" d="M146.12 478.775h315.64V484H146.12z"/>
        <path fill="#AEE9ED" d="M142.48 478.775h104V484h-104z"/>
        <path fill="#FFF" d="M202.116 456.31L170.56 412.53l44.359-40.862 108.001 9.083z"/>
        <g transform="translate(243.88 399.36)">
            <mask id="d" fill="#fff">
                <use xlink:href="#c"/>
            </mask>
            <use fill="#AEE9ED" xlink:href="#c"/>
            <path fill="#6ED2E1" d="M52.065-1.634l-61.008 38.13-1.406-44.76z" mask="url(#d)"/>
        </g>
        <path fill="#7FD16B" d="M470.08 252.89l-44.72 44.764h44.72z"/>
        <path fill="#7FD16B" d="M470.08 294.531l-44.72 44.765h44.72zM470.08 339.296l-44.72 44.764h44.72z"/>
        <path fill="#3B5A33" d="M21.84 197.715H135.2v67.667l-56.68-42.578-56.68 42.578z"/>
        <g fill="#F2F6F9">
            <path d="M426.4 46.765H520V25.944h-93.6zM405.6 67.586h93.6V46.765h-93.6z"/>
            <path d="M383.76 87.365h93.6V66.544h-93.6zM362.96 108.186h93.6V87.365h-93.6zM342.16 130.048h91.52v-20.821h-91.52z"/>
        </g>
        <path fill="#0A1650" d="M336.96 154.872h96.403V3.041H336.96z"/>
        <path fill="#6ED2E1" d="M341.12 133.037h88.4V7.205h-88.4z"/>
        <path fill="#F4FEFF" d="M392.78 143.381c0 4.233-3.411 7.664-7.619 7.664-4.207 0-7.618-3.431-7.618-7.664 0-4.232 3.411-7.663 7.618-7.663 4.208 0 7.619 3.43 7.619 7.663"/>
        <path fill="#AEE9ED" d="M420.914 93.079l-38.123 16.581 6.388-30.11a21.616 21.616 0 0 0 10.57-18.61c0-4.66-1.466-8.978-3.965-12.51l6.069-28.59 19.061 73.239z"/>
        <path fill="#6ED2E1" d="M399.748 60.94a21.616 21.616 0 0 1-10.569 18.61l6.605-31.12a21.584 21.584 0 0 1 3.964 12.51"/>
        <path fill="#F4FEFF" d="M395.784 48.43l-6.605 31.12a21.253 21.253 0 0 1-10.913 2.994c-11.86 0-21.477-9.675-21.477-21.605 0-11.933 9.618-21.608 21.477-21.608 7.231 0 13.624 3.59 17.518 9.098"/>
        <path stroke="#FFF" stroke-width="2.08" d="M128.86 97.35c43.503-48.78 46.085 47.952 79.952 8.123"/>
        <path fill="#AEE9ED" d="M483.6 119.637H520V252.89h-36.4z"/>
        <g transform="translate(483.6 119.637)">
            <mask id="f" fill="#fff">
                <use xlink:href="#e"/>
            </mask>
            <use fill="#AEE9ED" xlink:href="#e"/>
            <ellipse cx="-84.24" cy="189.469" fill="#6ED2E1" mask="url(#f)" rx="114.4" ry="114.514"/>
            <path stroke="#FFF" stroke-linecap="square" stroke-width="2.08" d="M41.08-3.644L-2.6 34.875M40.04 64.024l-43.68 38.518" mask="url(#f)"/>
            <path stroke="#FFF" stroke-linecap="square" stroke-width="2.08" d="M44.2 32.793L.52 71.31" mask="url(#f)" transform="matrix(1 0 0 -1 0 104.104)"/>
            <path stroke="#FFF" stroke-linecap="square" stroke-width="2.08" d="M.52 100.46H54.6" mask="url(#f)"/>
        </g>
        <g transform="translate(0 63.421)">
            <mask id="h" fill="#fff">
                <use xlink:href="#g"/>
            </mask>
            <use fill="#7FD16B" xlink:href="#g"/>
            <path stroke="#BBECB0" stroke-width="2.08" d="M1.717 119.506c70.444 12.899 109.78-3.945 88.573-35.081-21.208-31.137-30.447-82.378 11.84-98.992 28.192-11.075-3.978-31.127-96.508-60.155-49.566 120.886-50.868 185.629-3.905 194.228z" mask="url(#h)"/>
            <path stroke="#BBECB0" stroke-width="2.08" d="M-53.786 96.052C30.188 107.532 77.08 92.54 51.8 64.829 26.518 37.117 15.504-8.488 65.914-23.274c33.606-9.858-4.742-27.704-115.044-53.54-59.086 107.59-60.638 165.212-4.656 172.866z" mask="url(#h)"/>
            <path stroke="#BBECB0" stroke-width="2.08" d="M25.8 138.574c66.406 35.792 149.27-3.655 120.433-32.508-28.836-28.853-41.399-76.336 16.1-91.731C200.665 4.07 156.924-14.51 31.11-41.41-16.7 54.72-18.47 114.713 25.8 138.574z" mask="url(#h)"/>
            <g mask="url(#h)">
                <g transform="translate(13.52 13.533)">
                    <mask id="j" fill="#fff">
                        <use xlink:href="#i"/>
                    </mask>
                    <use fill="#BBECB0" xlink:href="#i"/>
                    <g stroke="#FFF" stroke-width="2.08" mask="url(#j)">
                        <path d="M-11.803 105.972c70.444 12.9 109.78-3.945 88.573-35.08C55.562 39.754 46.323-11.488 88.61-28.1c28.192-11.076-3.978-31.128-96.508-60.156-49.566 120.886-50.868 185.63-3.905 194.228z"/>
                        <path d="M-67.306 82.518C16.668 93.998 63.56 79.008 38.28 51.296 12.998 23.584 1.984-22.022 52.394-36.808 86-46.666 47.652-64.512-62.65-90.348c-59.086 107.591-60.638 165.213-4.656 172.866z"/>
                        <path d="M12.28 125.04c66.406 35.793 149.27-3.655 120.433-32.508-28.836-28.852-41.399-76.336 16.1-91.73 38.332-10.264-5.409-28.845-131.223-55.744C-30.22 41.185-31.99 101.18 12.28 125.04z"/>
                    </g>
                </g>
            </g>
        </g>
        <path fill="#0A1650" d="M118.117 161.213H266.79v-33.248H118.117z"/>
        <path fill="#FFF" d="M118.118 127.965L74.88 144.59l43.238 16.624z"/>
        <path fill="#0A1650" d="M74.88 144.59l21.145 8.13v-16.26z"/>
        <g transform="translate(191.36 136.294)">
            <ellipse cx="7.8" cy="54.654" fill="#AEE9ED" rx="7.8" ry="7.808"/>
            <ellipse cx="148.2" cy="51.531" fill="#AEE9ED" rx="7.8" ry="7.808"/>
            <ellipse cx="7.8" cy="101.501" fill="#AEE9ED" rx="7.8" ry="7.808"/>
            <ellipse cx="148.2" cy="98.378" fill="#7FD16B" rx="7.8" ry="7.808"/>
            <ellipse cx="7.8" cy="7.808" fill="#BBECB0" rx="7.8" ry="7.808"/>
            <ellipse cx="54.6" cy="54.654" fill="#AEE9ED" rx="7.8" ry="7.808"/>
            <ellipse cx="54.6" cy="101.501" fill="#AEE9ED" rx="7.8" ry="7.808"/>
            <ellipse cx="54.6" cy="7.808" fill="#BBECB0" rx="7.8" ry="7.808"/>
            <ellipse cx="101.4" cy="54.654" fill="#AEE9ED" rx="7.8" ry="7.808"/>
            <ellipse cx="101.4" cy="101.501" fill="#AEE9ED" rx="7.8" ry="7.808"/>
            <ellipse cx="101.4" cy="7.808" fill="#AEE9ED" rx="7.8" ry="7.808"/>
            <ellipse cx="195" cy="51.531" fill="#AEE9ED" rx="7.8" ry="7.808"/>
            <ellipse cx="195" cy="98.378" fill="#7FD16B" rx="7.8" ry="7.808"/>
        </g>
        <path stroke="#F2F6F9" stroke-linecap="square" stroke-width="2.08" d="M69.136 253.36l83.248 58.398M44.176 271.058l83.248 58.398M22.336 287.715l83.248 58.397M22.333 324.189l56.214 42.706M23.383 362.697l29.154 21.907M22.32 394.991l11.52 9.37"/>
        <g transform="translate(257.92 35.313)">
            <mask id="l" fill="#fff">
                <use xlink:href="#k"/>
            </mask>
            <use fill="#7FD16B" xlink:href="#k"/>
            <path stroke="#BBECB0" stroke-width="2.08" d="M0 43.815c8.781 0 16.562-4.444 9.416-16.452C2.271 15.355 11.538.922 20.803 16.218c9.264 15.297-16.444 37.04 1.682 41.302 18.126 4.26 13.442-27.032 11.727-31.864" mask="url(#l)"/>
        </g>
        <path stroke="#6ED2E1" stroke-linecap="square" stroke-width="2.08" d="M281.84 32.19V16.575M298.48 39.477l11.44-11.451M305.76 55.093h15.6"/>
    </g>
</svg>
