<?xml version="1.0" encoding="UTF-8"?>
<svg width="44px" height="48px" viewBox="0 0 44 48" version="1.1" xmlns="http://www.w3.org/2000/svg" xmlns:xlink="http://www.w3.org/1999/xlink">
    <!-- Generator: Sketch 50.2 (55047) - http://www.bohemiancoding.com/sketch -->
    <title>icn/accessible--2</title>
    <desc>Created with Sketch.</desc>
    <defs></defs>
    <g id="Page-1" stroke="none" stroke-width="1" fill="none" fill-rule="evenodd">
        <g id="checklist" transform="translate(-696.000000, -725.000000)">
            <g id="Group-13" transform="translate(659.000000, 518.000000)">
                <g id="Group-8" transform="translate(0.000000, 176.000000)">
                    <g id="Group-7">
                        <g id="icn/accessible--2" transform="translate(35.000000, 31.000000)">
                            <g id="Shape">
                                <polygon points="0 0 48 0 48 48 0 48"></polygon>
                                <path d="M44.7777778,9.6 C38.3977778,11.28 30.9177778,12 24,12 C17.0822222,12 9.60222222,11.28 3.22222222,9.6 L2,14.4 C6.54666667,15.6 11.7777778,16.392 16.6666667,16.8 L16.6666667,48 L21.5555556,48 L21.5555556,33.6 L26.4444444,33.6 L26.4444444,48 L31.3333333,48 L31.3333333,16.8 C36.2222222,16.392 41.4533333,15.6 46,14.4 L44.7777778,9.6 Z M24,9.6 C26.6888889,9.6 28.8888889,7.44 28.8888889,4.8 C28.8888889,2.16 26.6888889,0 24,0 C21.3111111,0 19.1111111,2.16 19.1111111,4.8 C19.1111111,7.44 21.3111111,9.6 24,9.6 Z" fill="#989FA9" fill-rule="nonzero" class="colored"></path>
                            </g>
                        </g>
                    </g>
                </g>
            </g>
        </g>
    </g>
</svg>