<?xml version="1.0" encoding="UTF-8"?>
<svg width="36px" height="42px" viewBox="0 0 36 42" version="1.1" xmlns="http://www.w3.org/2000/svg" xmlns:xlink="http://www.w3.org/1999/xlink">
    <!-- Generator: Sketch 50.2 (55047) - http://www.bohemiancoding.com/sketch -->
    <title>icn/eco-concept</title>
    <desc>Created with Sketch.</desc>
    <defs></defs>
    <g id="Page-1" stroke="none" stroke-width="1" fill="none" fill-rule="evenodd">
        <g id="checklist" transform="translate(-1199.000000, -551.000000)">
            <g id="Group-2" transform="translate(1160.000000, 518.000000)">
                <g id="icn/eco-concept" transform="translate(33.000000, 31.000000)">
                    <g>
                        <g id="Bounding_Boxes">
                            <polygon id="Shape" points="0 0 48 0 48 48 0 48"></polygon>
                        </g>
                        <g id="Duotone" transform="translate(6.000000, 2.000000)" fill-rule="nonzero">
                            <g id="Group">
                                <path d="M18,24 C19.24,24 20.24,23.02 20.28,21.8 L20.06,19.62 C19.42,19.86 18.72,20 18,20 C17.28,20 16.6,19.86 15.96,19.62 L15.72,21.8 C15.76,23.02 16.76,24 18,24 Z" id="Shape" fill="#FFFFFF" opacity="0.3"></path>
                                <path d="M10.34,12.2 L12.1,13.04 C12.34,11.58 13.12,10.3 14.22,9.38 L12.6,8.26 C12.24,8 11.78,7.86 11.32,7.86 C10.06,7.86 9.04,8.88 9.04,10.14 C9.02,11.02 9.54,11.8 10.34,12.2 Z" id="Shape" fill="#FFFFFF" opacity="0.3"></path>
                                <path d="M25.66,15.8 L23.9,14.96 C23.66,16.42 22.88,17.7 21.78,18.62 L23.4,19.76 C23.76,20.02 24.22,20.16 24.68,20.16 C25.94,20.16 26.96,19.14 26.96,17.88 C26.98,16.98 26.46,16.2 25.66,15.8 Z" id="Shape" fill="#FFFFFF" opacity="0.3"></path>
                                <path d="M23.9,13.04 L25.66,12.2 C26.46,11.82 26.98,11.02 26.98,10.14 C26.98,8.88 25.96,7.86 24.7,7.86 C24.22,7.86 23.78,8 23.4,8.26 L21.78,9.36 C22.88,10.28 23.66,11.56 23.9,13.04 Z" id="Shape" fill="#FFFFFF" opacity="0.3"></path>
                                <path d="M18,8 C18.72,8 19.42,8.14 20.06,8.38 L20.28,6.2 C20.24,4.98 19.24,4 18,4 C16.76,4 15.76,4.98 15.72,6.2 L15.96,8.38 C16.6,8.14 17.28,8 18,8 Z" id="Shape" fill="#FFFFFF" opacity="0.3"></path>
                                <path d="M11.32,20.14 C11.8,20.14 12.24,20 12.62,19.74 L14.24,18.64 C13.12,17.72 12.34,16.44 12.1,14.96 L10.34,15.8 C9.54,16.2 9.02,16.98 9.02,17.86 C9.02,19.12 10.06,20.14 11.32,20.14 Z" id="Shape" fill="#FFFFFF" opacity="0.3"></path>
                                <path d="M31.12,28.88 C27.32,30.3 24.28,33.32 22.88,37.12 C26.68,35.7 29.7,32.68 31.12,28.88 Z" id="Shape" fill="#FFFFFF" opacity="0.3"></path>
                                <path d="M4.88,28.88 C6.3,32.68 9.32,35.72 13.12,37.12 C11.7,33.32 8.68,30.3 4.88,28.88 Z" id="Shape" fill="#FFFFFF" opacity="0.3"></path>
                                <path d="M11.32,24.14 C11.62,24.14 11.9,24.12 12.18,24.08 C13.12,26.38 15.38,28 18,28 C20.62,28 22.88,26.38 23.82,24.08 C24.1,24.12 24.4,24.14 24.68,24.14 C28.14,24.14 30.96,21.32 30.96,17.86 C30.96,16.44 30.46,15.08 29.62,14 C30.48,12.92 30.96,11.56 30.96,10.14 C30.96,6.68 28.14,3.86 24.68,3.86 C24.38,3.86 24.1,3.88 23.82,3.92 C22.88,1.62 20.62,0 18,0 C15.38,0 13.12,1.62 12.18,3.92 C11.9,3.88 11.6,3.86 11.32,3.86 C7.86,3.86 5.04,6.68 5.04,10.14 C5.04,11.56 5.54,12.92 6.38,14 C5.52,15.08 5.02,16.44 5.02,17.86 C5.02,21.32 7.84,24.14 11.32,24.14 Z M24.68,20.14 C24.2,20.14 23.76,20 23.4,19.74 L21.78,18.6 C22.88,17.7 23.66,16.42 23.9,14.94 L25.66,15.78 C26.46,16.16 26.98,16.96 26.98,17.84 C26.98,19.12 25.94,20.14 24.68,20.14 Z M23.38,8.26 C23.78,8 24.22,7.86 24.68,7.86 C25.94,7.86 26.96,8.88 26.96,10.14 C26.96,11.02 26.46,11.8 25.64,12.2 L23.88,13.04 C23.64,11.56 22.86,10.28 21.74,9.38 L23.38,8.26 Z M18,4 C19.24,4 20.24,4.98 20.28,6.2 L20.06,8.38 C19.42,8.14 18.72,8 18,8 C17.28,8 16.6,8.14 15.96,8.38 L15.72,6.2 C15.76,4.98 16.76,4 18,4 Z M20,14 C20,15.1 19.1,16 18,16 C16.9,16 16,15.1 16,14 C16,12.9 16.9,12 18,12 C19.1,12 20,12.9 20,14 Z M15.96,19.62 C16.6,19.86 17.28,20 18,20 C18.72,20 19.42,19.86 20.06,19.62 L20.28,21.8 C20.24,23.02 19.24,24 18,24 C16.76,24 15.76,23.02 15.72,21.8 L15.96,19.62 Z M11.32,7.86 C11.8,7.86 12.24,8 12.6,8.26 L14.22,9.38 C13.12,10.28 12.34,11.56 12.1,13.04 L10.34,12.2 C9.54,11.8 9.02,11.02 9.02,10.14 C9.02,8.88 10.06,7.86 11.32,7.86 Z M10.34,15.8 L12.1,14.96 C12.34,16.44 13.12,17.72 14.24,18.62 L12.62,19.72 C12.22,19.98 11.78,20.12 11.32,20.12 C10.06,20.12 9.04,19.1 9.04,17.84 C9.02,16.98 9.54,16.2 10.34,15.8 Z" id="Shape" class="colored"></path>
                                <path d="M18,42 C27.94,42 36,33.94 36,24 C26.06,24 18,32.06 18,42 Z M31.12,28.88 C29.7,32.68 26.68,35.72 22.88,37.12 C24.3,33.32 27.32,30.3 31.12,28.88 Z" id="Shape" fill="#000"></path>
                                <path d="M0,24 C0,33.94 8.06,42 18,42 C18,32.06 9.94,24 0,24 Z M4.88,28.88 C8.68,30.3 11.72,33.32 13.12,37.12 C9.32,35.7 6.3,32.68 4.88,28.88 Z" id="Shape" fill="#000"></path>
                            </g>
                        </g>
                    </g>
                </g>
            </g>
        </g>
    </g>
</svg>