<?xml version="1.0" encoding="UTF-8"?>
<svg width="40px" height="46px" viewBox="0 0 40 46" version="1.1" xmlns="http://www.w3.org/2000/svg" xmlns:xlink="http://www.w3.org/1999/xlink">
    <!-- Generator: Sketch 50.2 (55047) - http://www.bohemiancoding.com/sketch -->
    <title>icn/green-it</title>
    <desc>Created with Sketch.</desc>
    <defs></defs>
    <g id="Page-1" stroke="none" stroke-width="1" fill="none" fill-rule="evenodd">
        <g id="checklist" transform="translate(-948.000000, -726.000000)">
            <g id="Group-12" transform="translate(909.000000, 518.000000)">
                <g id="Group-11" transform="translate(4.000000, 176.000000)">
                    <g id="Group-10">
                        <g id="icn/green-it" transform="translate(31.000000, 31.000000)">
                            <g>
                                <g id="Bounding_Boxes">
                                    <polygon id="Shape" points="0 0 48 0 48 48 0 48"></polygon>
                                </g>
                                <g id="Duotone" transform="translate(4.000000, 1.000000)" fill-rule="nonzero">
                                    <g id="Group">
                                        <path d="M33.38,14.22 C31.98,14.22 30.6,14.6 29.38,15.3 C29.06,15.48 28.74,15.72 28.3,16.04 L26.04,17.84 C26.66,18.56 27.16,19.4 27.48,20.32 L30.24,19.28 C30.68,19.12 31.06,18.94 31.4,18.74 C33.08,17.76 34.34,16.2 34.96,14.38 C34.44,14.26 33.92,14.22 33.38,14.22 Z" id="Shape" fill="#FFFFFF" opacity="0.3"></path>
                                        <path d="M30.26,26.74 L27.5,25.7 C27.18,26.6 26.7,27.4 26.1,28.12 L28.4,30.04 C28.7,30.28 29.02,30.52 29.38,30.72 C30.6,31.42 31.98,31.8 33.36,31.8 C33.9,31.8 34.42,31.74 34.96,31.64 C34.34,29.82 33.08,28.26 31.4,27.28 C31.08,27.08 30.7,26.9 30.26,26.74 Z" id="Shape" fill="#FFFFFF" opacity="0.3"></path>
                                        <path d="M18,11 C18,11.38 18.04,11.82 18.1,12.26 L18.56,15.14 C19.04,15.06 19.52,15 20,15 C20.48,15 20.96,15.06 21.42,15.14 L21.88,12.26 C21.96,11.82 22,11.38 22,11 C22,9.04 21.26,7.18 20,5.74 C18.74,7.18 18,9.04 18,11 Z" id="Shape" fill="#FFFFFF" opacity="0.3"></path>
                                        <path d="M21.42,30.86 C20.96,30.94 20.48,31 20,31 C19.5,31 19.02,30.94 18.56,30.86 L18.12,33.7 C18.04,34.18 18,34.6 18,35 C18,36.96 18.74,38.82 20,40.26 C21.26,38.82 22,36.94 22,35 C22,34.62 21.96,34.18 21.9,33.74 L21.42,30.86 Z" id="Shape" fill="#FFFFFF" opacity="0.3"></path>
                                        <path d="M9.74,19.24 L12.5,20.28 C12.82,19.4 13.3,18.58 13.9,17.88 L11.6,15.98 C11.26,15.68 10.92,15.44 10.62,15.28 C9.38,14.56 8.02,14.2 6.62,14.2 C6.08,14.2 5.54,14.26 5,14.36 C5.6,16.18 6.86,17.72 8.58,18.72 C8.92,18.9 9.3,19.08 9.74,19.24 Z" id="Shape" fill="#FFFFFF" opacity="0.3"></path>
                                        <path d="M9.74,26.72 C9.3,26.88 8.92,27.06 8.58,27.26 C6.9,28.24 5.64,29.8 5.02,31.62 C5.54,31.72 6.06,31.78 6.6,31.78 C8,31.78 9.38,31.4 10.6,30.7 C10.92,30.52 11.24,30.28 11.68,29.96 L13.94,28.18 C13.32,27.46 12.82,26.62 12.5,25.7 L9.74,26.72 Z" id="Shape" fill="#FFFFFF" opacity="0.3"></path>
                                        <path d="M33.4,23.8 C32.84,23.48 32.26,23.22 31.68,23 C32.26,22.78 32.84,22.52 33.4,22.2 C37.24,19.98 39.38,15.96 39.4,11.82 C37.58,10.78 35.5,10.22 33.38,10.22 C31.34,10.22 29.28,10.74 27.4,11.82 C26.84,12.14 26.32,12.52 25.84,12.9 C25.94,12.28 26,11.64 26,11 C26,6.56 23.58,2.7 20,0.62 C16.42,2.7 14,6.56 14,11 C14,11.64 14.06,12.28 14.16,12.9 C13.68,12.5 13.16,12.12 12.6,11.8 C10.72,10.72 8.66,10.2 6.62,10.2 C4.52,10.2 2.42,10.76 0.6,11.8 C0.6,15.94 2.74,19.96 6.6,22.18 C7.16,22.5 7.74,22.76 8.32,22.98 C7.74,23.2 7.16,23.46 6.6,23.78 C2.76,26 0.62,30.02 0.6,34.16 C2.42,35.2 4.5,35.76 6.62,35.76 C8.66,35.76 10.72,35.24 12.6,34.16 C13.16,33.84 13.68,33.46 14.16,33.08 C14.06,33.72 14,34.36 14,35 C14,39.44 16.42,43.3 20,45.38 C23.58,43.3 26,39.44 26,35 C26,34.36 25.94,33.72 25.84,33.1 C26.32,33.5 26.84,33.86 27.4,34.18 C29.28,35.26 31.34,35.78 33.38,35.78 C35.48,35.78 37.58,35.22 39.4,34.18 C39.38,30.04 37.24,26.02 33.4,23.8 Z M5.02,14.36 C5.54,14.24 6.08,14.2 6.62,14.2 C8,14.2 9.38,14.56 10.6,15.28 C10.9,15.46 11.24,15.68 11.58,15.98 L13.88,17.9 C13.28,18.62 12.82,19.42 12.48,20.3 L9.72,19.26 C9.3,19.08 8.92,18.9 8.6,18.72 C6.86,17.72 5.62,16.18 5.02,14.36 Z M11.68,29.94 C11.26,30.28 10.92,30.52 10.6,30.68 C9.38,31.38 8,31.76 6.6,31.76 C6.06,31.76 5.54,31.7 5.02,31.6 C5.64,29.78 6.9,28.22 8.58,27.24 C8.92,27.04 9.3,26.88 9.74,26.7 L12.5,25.66 C12.82,26.58 13.32,27.42 13.94,28.14 L11.68,29.94 Z M20,5.74 C21.26,7.18 22,9.06 22,11 C22,11.38 21.96,11.82 21.9,12.26 L21.44,15.14 C20.96,15.06 20.48,15 20,15 C19.52,15 19.04,15.06 18.58,15.14 L18.12,12.26 C18.04,11.82 18,11.38 18,11 C18,9.04 18.74,7.18 20,5.74 Z M20,40.26 C18.74,38.82 18,36.94 18,35 C18,34.6 18.04,34.18 18.12,33.7 L18.56,30.86 C19.02,30.94 19.5,31 20,31 C20.48,31 20.96,30.94 21.42,30.86 L21.88,33.74 C21.96,34.18 22,34.62 22,35 C22,36.96 21.26,38.82 20,40.26 Z M20,27 C17.8,27 16,25.2 16,23 C16,20.8 17.8,19 20,19 C22.2,19 24,20.8 24,23 C24,25.2 22.2,27 20,27 Z M28.32,16.04 C28.74,15.7 29.08,15.46 29.4,15.3 C30.62,14.6 32,14.22 33.4,14.22 C33.94,14.22 34.46,14.28 34.98,14.38 C34.36,16.2 33.1,17.76 31.42,18.74 C31.08,18.94 30.7,19.1 30.26,19.28 L27.5,20.32 C27.16,19.4 26.68,18.58 26.06,17.84 L28.32,16.04 Z M33.38,31.78 C32,31.78 30.62,31.42 29.4,30.7 C29.04,30.5 28.72,30.26 28.42,30.02 L26.12,28.1 C26.72,27.38 27.2,26.58 27.52,25.68 L30.28,26.72 C30.72,26.88 31.1,27.06 31.42,27.24 C33.12,28.22 34.36,29.78 34.98,31.6 C34.44,31.74 33.9,31.78 33.38,31.78 Z" id="Shape" fill="#989FA9"></path>
                                    </g>
                                </g>
                            </g>
                        </g>
                    </g>
                </g>
            </g>
        </g>
    </g>
</svg>