<?xml version="1.0" encoding="UTF-8"?>
<svg width="40px" height="40px" viewBox="0 0 40 40" version="1.1" xmlns="http://www.w3.org/2000/svg" xmlns:xlink="http://www.w3.org/1999/xlink">
    <!-- Generator: Sketch 50.2 (55047) - http://www.bohemiancoding.com/sketch -->
    <title>icn/opquast-website</title>
    <desc>Created with Sketch.</desc>
    <defs></defs>
    <g id="Page-1" stroke="none" stroke-width="1" fill="none" fill-rule="evenodd">
        <g id="checklist" transform="translate(-200.000000, -729.000000)">
            <g id="Group-15" transform="translate(166.000000, 518.000000)">
                <g id="Group-4" transform="translate(0.000000, 176.000000)">
                    <g id="icn/opquast-website" transform="translate(30.000000, 31.000000)">
                        <g>
                            <g id="Bounding_Boxes">
                                <polygon id="Shape" points="0 0 48 0 48 48 0 48"></polygon>
                            </g>
                            <g id="Duotone" transform="translate(4.000000, 4.000000)" fill-rule="nonzero">
                                <g id="Group">
                                    <path d="M6.16,12 L12.06,12 C12.7,9.5 13.62,7.1 14.82,4.88 C11.14,6.14 8.08,8.68 6.16,12 Z" id="Shape" fill="#FFFFFF" opacity="0.3"></path>
                                    <path d="M11,20 C11,18.64 11.12,17.32 11.28,16 L4.52,16 C4.2,17.28 4,18.62 4,20 C4,21.38 4.2,22.72 4.52,24 L11.28,24 C11.12,22.68 11,21.36 11,20 Z" id="Shape" fill="#FFFFFF" opacity="0.3"></path>
                                    <path d="M6.16,28 C8.08,31.32 11.14,33.86 14.82,35.12 C13.62,32.9 12.7,30.5 12.06,28 L6.16,28 Z" id="Shape" fill="#FFFFFF" opacity="0.3"></path>
                                    <path d="M20,4.08 C18.34,6.48 17.04,9.14 16.18,12 L23.82,12 C22.96,9.14 21.66,6.48 20,4.08 Z" id="Shape" fill="#FFFFFF" opacity="0.3"></path>
                                    <path d="M33.84,12 C31.92,8.7 28.86,6.14 25.18,4.88 C26.38,7.1 27.3,9.5 27.94,12 L33.84,12 Z" id="Shape" fill="#FFFFFF" opacity="0.3"></path>
                                    <path d="M20,35.92 C21.66,33.52 22.96,30.86 23.82,28 L16.18,28 C17.04,30.86 18.34,33.52 20,35.92 Z" id="Shape" fill="#FFFFFF" opacity="0.3"></path>
                                    <path d="M25.18,35.12 C28.86,33.86 31.92,31.3 33.84,28 L27.94,28 C27.3,30.5 26.38,32.9 25.18,35.12 Z" id="Shape" fill="#FFFFFF" opacity="0.3"></path>
                                    <path d="M35.48,16 L28.72,16 C28.88,17.32 29,18.64 29,20 C29,21.36 28.88,22.68 28.72,24 L35.48,24 C35.8,22.72 36,21.38 36,20 C36,18.62 35.8,17.28 35.48,16 Z" id="Shape" fill="#FFFFFF" opacity="0.3"></path>
                                    <path d="M15.32,16 C15.14,17.3 15,18.64 15,20 C15,21.36 15.14,22.68 15.32,24 L24.68,24 C24.86,22.68 25,21.36 25,20 C25,18.64 24.86,17.3 24.68,16 L15.32,16 Z" id="Shape" fill="#FFFFFF" opacity="0.3"></path>
                                    <path d="M19.98,0 C8.94,0 0,8.96 0,20 C0,31.04 8.94,40 19.98,40 C31.04,40 40,31.04 40,20 C40,8.96 31.04,0 19.98,0 Z M33.84,12 L27.94,12 C27.3,9.5 26.38,7.1 25.18,4.88 C28.86,6.14 31.92,8.7 33.84,12 Z M20,4.08 C21.66,6.48 22.96,9.14 23.82,12 L16.18,12 C17.04,9.14 18.34,6.48 20,4.08 Z M4.52,24 C4.2,22.72 4,21.38 4,20 C4,18.62 4.2,17.28 4.52,16 L11.28,16 C11.12,17.32 11,18.64 11,20 C11,21.36 11.12,22.68 11.28,24 L4.52,24 Z M6.16,28 L12.06,28 C12.7,30.5 13.62,32.9 14.82,35.12 C11.14,33.86 8.08,31.32 6.16,28 Z M12.06,12 L6.16,12 C8.08,8.68 11.14,6.14 14.82,4.88 C13.62,7.1 12.7,9.5 12.06,12 Z M20,35.92 C18.34,33.52 17.04,30.86 16.18,28 L23.82,28 C22.96,30.86 21.66,33.52 20,35.92 Z M24.68,24 L15.32,24 C15.14,22.68 15,21.36 15,20 C15,18.64 15.14,17.3 15.32,16 L24.68,16 C24.86,17.3 25,18.64 25,20 C25,21.36 24.86,22.68 24.68,24 Z M25.18,35.12 C26.38,32.9 27.3,30.5 27.94,28 L33.84,28 C31.92,31.3 28.86,33.86 25.18,35.12 Z M28.72,24 C28.88,22.68 29,21.36 29,20 C29,18.64 28.88,17.32 28.72,16 L35.48,16 C35.8,17.28 36,18.62 36,20 C36,21.38 35.8,22.72 35.48,24 L28.72,24 Z" id="Shape" fill="#989FA9"></path>
                                </g>
                            </g>
                        </g>
                    </g>
                </g>
            </g>
        </g>
    </g>
</svg>