<?xml version="1.0" encoding="UTF-8"?>
<svg width="44px" height="40px" viewBox="0 0 44 40" version="1.1" xmlns="http://www.w3.org/2000/svg" xmlns:xlink="http://www.w3.org/1999/xlink">
    <!-- Generator: Sketch 50.2 (55047) - http://www.bohemiancoding.com/sketch -->
    <title>icn/qualite-web</title>
    <desc>Created with Sketch.</desc>
    <defs></defs>
    <g id="Page-1" stroke="none" stroke-width="1" fill="none" fill-rule="evenodd">
        <g id="checklist" transform="translate(-199.000000, -547.000000)">
            <g id="Group-15" transform="translate(166.000000, 518.000000)">
                <g id="Group-3">
                    <g id="icn/qualite-web" transform="translate(31.000000, 27.000000)">
                        <g id="Bounding_Boxes" opacity="0.87">
                            <polygon id="Shape" points="0 0 48 0 48 48 0 48"></polygon>
                        </g>
                        <g id="Duotone" transform="translate(2.000000, 2.000000)" fill-rule="nonzero">
                            <g id="Group">
                                <polygon id="Shape" fill="#FFFFFF" points="24.68 7.32 16 16 16 36 34 36 40 22 40 18 22.46 18"></polygon>
                                <path d="M40,14 L27.38,14 L29.28,4.86 L29.34,4.22 C29.34,3.4 29,2.64 28.46,2.1 L26.34,0 L13.18,13.18 C12.44,13.9 12,14.9 12,16 L12,36 C12,38.2 13.8,40 16,40 L34,40 C35.66,40 37.08,39 37.68,37.56 L43.72,23.46 C43.9,23 44,22.52 44,22 L44,18 C44,15.8 42.2,14 40,14 Z M40,22 L34,36 L16,36 L16,16 L24.68,7.32 L22.46,18 L40,18 L40,22 Z" id="Shape" fill="#EF6839"></path>
                                <rect id="Rectangle-path" fill="#EF6839" x="0" y="16" width="8" height="24"></rect>
                            </g>
                        </g>
                    </g>
                </g>
            </g>
        </g>
    </g>
</svg>