<?xml version="1.0" encoding="UTF-8"?>
<svg width="35px" height="35px" viewBox="0 0 35 35" version="1.1" xmlns="http://www.w3.org/2000/svg" xmlns:xlink="http://www.w3.org/1999/xlink">
    <!-- Generator: Sketch 50.2 (55047) - http://www.bohemiancoding.com/sketch -->
    <title>icn/seo</title>
    <desc>Created with Sketch.</desc>
    <defs></defs>
    <g id="Page-1" stroke="none" stroke-width="1" fill="none" fill-rule="evenodd">
        <g id="checklist" transform="translate(-700.000000, -555.000000)">
            <g id="Group-13" transform="translate(659.000000, 518.000000)">
                <g id="Group-9" transform="translate(4.000000, 0.000000)">
                    <g id="icn/seo" transform="translate(31.000000, 31.000000)">
                        <g>
                            <g id="Bounding_Boxes">
                                <polygon id="Shape" points="0 0 48 0 48 48 0 48"></polygon>
                            </g>
                            <g id="seo__icn" transform="translate(6.000000, 6.000000)">
                                <path d="M13,22 C8.02,22 4,17.98 4,13 C4,8.02 8.02,4 13,4 C17.98,4 22,8.02 22,13 C22,17.98 17.98,22 13,22 Z" id="Path" fill="#FFFFFF"></path>
                                <path d="M25,22 L23.42,22 L22.86,21.46 C24.82,19.18 26,16.22 26,13 C26,5.82 20.18,0 13,0 C5.82,0 0,5.82 0,13 C0,20.18 5.82,26 13,26 C16.22,26 19.18,24.82 21.46,22.86 L22,23.42 L22,25 L32,34.98 L34.98,32 L25,22 Z M13,22 C8.02,22 4,17.98 4,13 C4,8.02 8.02,4 13,4 C17.98,4 22,8.02 22,13 C22,17.98 17.98,22 13,22 Z" id="Shape" fill="#5F666F" fill-rule="nonzero"></path>
                            </g>
                        </g>
                    </g>
                </g>
            </g>
        </g>
    </g>
</svg>