<svg xmlns="http://www.w3.org/2000/svg" width="29" height="29" viewBox="0 0 29 29">
    <g fill="none" fill-rule="evenodd">
        <path d="M0 0h29v29H0z"/>
        <path fill="#FFF" d="M21.625 3H7.375C6.069 3 5 4.08 5 5.4v19.2C5 25.92 6.069 27 7.375 27h14.25C22.931 27 24 25.92 24 24.6V5.4C24 4.08 22.931 3 21.625 3z"/>
        <path fill="#FC4B62" fill-rule="nonzero" d="M21.625 3H7.375C6.069 3 5 4.08 5 5.4v19.2C5 25.92 6.069 27 7.375 27h14.25C22.931 27 24 25.92 24 24.6V5.4C24 4.08 22.931 3 21.625 3zM10.937 5.4h2.376v6l-1.188-.9-1.188.9v-6zm10.688 19.2H7.375V5.4h1.188v10.8l3.562-2.7 3.563 2.7V5.4h5.937v19.2z"/>
    </g>
</svg>
