<svg xmlns="http://www.w3.org/2000/svg" width="29" height="29" viewBox="0 0 29 29">
    <g fill="none" fill-rule="evenodd">
        <path d="M0 0h29v29H0z"/>
        <path fill="#FFF" d="M14.5 2.417C7.83 2.417 2.417 7.83 2.417 14.5S7.83 26.583 14.5 26.583 26.583 21.17 26.583 14.5 21.17 2.417 14.5 2.417z"/>
        <path fill="#FC4B62" fill-rule="nonzero" d="M14.5 2.417C7.83 2.417 2.417 7.83 2.417 14.5S7.83 26.583 14.5 26.583 26.583 21.17 26.583 14.5 21.17 2.417 14.5 2.417zm0 21.75c-5.329 0-9.667-4.338-9.667-9.667S9.171 4.833 14.5 4.833s9.667 4.338 9.667 9.667-4.338 9.667-9.667 9.667z"/>
        <path fill="#FC4B62" fill-rule="nonzero" d="M20.046 9.16l-7.963 7.962-3.13-3.117-1.703 1.703 4.833 4.834 9.667-9.667z"/>
    </g>
</svg>
