<svg xmlns="http://www.w3.org/2000/svg" width="29" height="29" viewBox="0 0 29 29">
    <g fill="none" fill-rule="evenodd">
        <path d="M0 0h29v29H0z"/>
        <path fill="#FFF" d="M24.167 19.333H7.25L4.833 21.75V4.833h19.334z"/>
        <path fill="#40AA27" fill-rule="nonzero" d="M24.167 2.417H4.833a2.424 2.424 0 0 0-2.416 2.416v21.75L7.25 21.75h16.917a2.424 2.424 0 0 0 2.416-2.417v-14.5a2.424 2.424 0 0 0-2.416-2.416zm0 16.916H7.25L4.833 21.75V4.833h19.334v14.5z"/>
        <path fill="#40AA27" stroke="#40AA27" stroke-width=".5" d="M14.5 7c2.003 0 3.625 1.442 3.625 3.222 0 2.014-2.719 2.216-2.719 4.028h-1.812c0-2.618 2.719-2.417 2.719-4.028 0-.886-.816-1.61-1.813-1.61s-1.813.724-1.813 1.61h-1.812C10.875 8.442 12.497 7 14.5 7zm-.906 10.061V15.45h1.812v1.611h-1.812z"/>
    </g>
</svg>
