<svg xmlns="http://www.w3.org/2000/svg" width="29" height="29" viewBox="0 0 29 29">
    <g fill="none" fill-rule="evenodd">
        <path d="M0 0h29v29H0z"/>
        <path fill="#FFF" d="M24.167 7.25a2.408 2.408 0 0 1 2.416 2.417v13.291a2.408 2.408 0 0 1-2.416 2.417H4.833a2.408 2.408 0 0 1-2.416-2.417l.012-13.291A2.398 2.398 0 0 1 4.833 7.25h4.834V4.833a2.408 2.408 0 0 1 2.416-2.416h4.834a2.408 2.408 0 0 1 2.416 2.416V7.25h4.834z"/>
        <path fill="#00A2BA" fill-rule="nonzero" d="M16.917 7.25V4.833h-4.834V7.25h4.834zM4.833 9.667v13.291h19.334V9.667H4.833zM24.167 7.25a2.408 2.408 0 0 1 2.416 2.417v13.291a2.408 2.408 0 0 1-2.416 2.417H4.833a2.408 2.408 0 0 1-2.416-2.417l.012-13.291A2.398 2.398 0 0 1 4.833 7.25h4.834V4.833a2.408 2.408 0 0 1 2.416-2.416h4.834a2.408 2.408 0 0 1 2.416 2.416V7.25h4.834z"/>
    </g>
</svg>
