<svg xmlns="http://www.w3.org/2000/svg" width="29" height="29" viewBox="0 0 29 29">
    <g fill="none" fill-rule="evenodd">
        <path d="M0 0h29v29H0z"/>
        <path fill="#FFF" d="M14.5 3.625l-13.292 7.25 4.834 2.634v7.25l8.458 4.616 8.458-4.616v-7.25l2.417-1.317v8.35h2.417v-9.667z"/>
        <path fill="#00A2BA" fill-rule="nonzero" d="M14.5 3.625l-13.292 7.25 4.834 2.634v7.25l8.458 4.616 8.458-4.616v-7.25l2.417-1.317v8.35h2.417v-9.667L14.5 3.625zm8.24 7.25L14.5 15.37l-8.24-4.495L14.5 6.38l8.24 4.495zm-2.198 8.446L14.5 22.62l-6.042-3.299v-4.495l6.042 3.299 6.042-3.299v4.495z"/>
    </g>
</svg>
