<svg xmlns="http://www.w3.org/2000/svg" width="29" height="29" viewBox="0 0 29 29">
    <g fill="none" fill-rule="evenodd">
        <path fill="#FFF" d="M12.9 15.2a1.5 1.5 0 1 1-3.001-.001 1.5 1.5 0 0 1 3.001.001z"/>
        <path fill="#00A2BA" fill-rule="nonzero" d="M12.9 15.2a1.5 1.5 0 1 1-3.001-.001 1.5 1.5 0 0 1 3.001.001zm5.7-1.5a1.5 1.5 0 1 0 .001 3.001A1.5 1.5 0 0 0 18.6 13.7zm8.4.3c0 6.624-5.376 12-12 12S3 20.624 3 14 8.376 2 15 2s12 5.376 12 12zM13.392 4.544C15.072 7.328 18.12 9.2 21.6 9.2c.552 0 1.092-.06 1.608-.144C21.528 6.272 18.48 4.4 15 4.4c-.552 0-1.092.06-1.608.144zm-7.488 6.42a9.655 9.655 0 0 0 4.392-5.328 9.655 9.655 0 0 0-4.392 5.328zM24.6 14c0-.936-.144-1.836-.396-2.688-.84.18-1.704.288-2.604.288-3.756 0-7.104-1.728-9.312-4.428-1.26 3.072-3.768 5.484-6.888 6.66.012.048 0 .108 0 .168 0 5.292 4.308 9.6 9.6 9.6s9.6-4.308 9.6-9.6z"/>
        <g>
            <path d="M0 0h29v29H0z"/>
        </g>
    </g>
</svg>
