<?xml version="1.0" encoding="UTF-8"?>
<svg width="29px" height="29px" viewBox="0 0 29 29" version="1.1" xmlns="http://www.w3.org/2000/svg" xmlns:xlink="http://www.w3.org/1999/xlink">
    <!-- Generator: Sketch 50.2 (55047) - http://www.bohemiancoding.com/sketch -->
    <title>icn__backpack</title>
    <desc>Created with Sketch.</desc>
    <defs></defs>
    <g id="Page-1" stroke="none" stroke-width="1" fill="none" fill-rule="evenodd">
        <g id="guidestyle" transform="translate(-837.000000, -501.000000)">
            <g id="icn__backpack" transform="translate(837.000000, 501.000000)">
                <g id="Bounding_Boxes" fill="#FFFFFF">
                    <polygon id="Shape" points="0 0 29 0 29 29 0 29"></polygon>
                </g>
                <g id="outlines" transform="translate(3.625000, 2.416667)">
                    <rect id="Rectangle-31" x="1.20833333" y="4.83333333" width="19.3333333" height="16.9166667" rx="2.41666667"></rect>
                    <rect id="Rectangle-34" fill="#00A2BA" x="4.83333333" y="13.2916667" width="3.625" height="3.625"></rect>
                    <rect id="Rectangle-34-Copy" fill="#00A2BA" x="13.2916667" y="13.2916667" width="3.625" height="3.625"></rect>
                    <path d="M2.41666667,6.04166667 L2.41666667,20.5416667 L19.3333333,20.5416667 L19.3333333,6.04166667 L2.41666667,6.04166667 Z M16.9166667,3.625 L16.9166667,0 L19.3333333,0 L19.3333333,3.625 C20.6680215,3.625 21.75,4.70697852 21.75,6.04166667 L21.75,20.5416667 C21.75,21.8763548 20.6680215,22.9583333 19.3333333,22.9583333 L2.41666667,22.9583333 C1.08197852,22.9583333 0,21.8763548 0,20.5416667 L0,6.04166667 C0,4.70697852 1.08197852,3.625 2.41666667,3.625 L2.41666667,0 L4.83333333,0 L4.83333333,3.625 L16.9166667,3.625 Z M9.66666667,2.41666667 L9.66666667,3.625 L12.0833333,3.625 L12.0833333,2.41666667 L9.66666667,2.41666667 Z M9.66666667,0 L12.0833333,0 C13.4180215,0 14.5,1.08197852 14.5,2.41666667 L14.5,3.625 C14.5,4.95968815 13.4180215,6.04166667 12.0833333,6.04166667 L9.66666667,6.04166667 C8.33197852,6.04166667 7.25,4.95968815 7.25,3.625 L7.25,2.41666667 C7.25,1.08197852 8.33197852,0 9.66666667,0 Z M10.875,13.2916667 L21.75,13.2916667 L20.5416667,12.0833333 L20.5416667,14.5 L21.75,13.2916667 L10.875,13.2916667 Z M10.875,13.2916667 L0,13.2916667 L1.20833333,14.5 L1.20833333,12.0833333 L0,13.2916667 L10.875,13.2916667 Z M0,12.0833333 L21.75,12.0833333 L21.75,14.5 L0,14.5 L0,12.0833333 Z" id="Rectangle-31" fill="#00A2BA" fill-rule="nonzero"></path>
                </g>
            </g>
        </g>
    </g>
</svg>