<?xml version="1.0" encoding="UTF-8"?>
<svg width="40px" height="40px" viewBox="0 0 40 40" version="1.1" xmlns="http://www.w3.org/2000/svg" xmlns:xlink="http://www.w3.org/1999/xlink">
    <!-- Generator: Sketch 50.2 (55047) - http://www.bohemiancoding.com/sketch -->
    <title>baseline-forum-24px</title>
    <desc>Created with Sketch.</desc>
    <defs></defs>
    <g id="Maquettes" stroke="none" stroke-width="1" fill="none" fill-rule="evenodd">
        <g id="homepage" transform="translate(-1345.000000, -741.000000)">
            <g id="chat" transform="translate(1320.000000, 716.000000)">
                <g id="baseline-forum-24px" transform="translate(21.913043, 21.913043)">
                    <polygon id="Shape" points="0 0 46.9565217 0 46.9565217 46.9565217 0 46.9565217"></polygon>
                    <path d="M41.0869565,11.7391304 L37.173913,11.7391304 L37.173913,29.3478261 L11.7391304,29.3478261 L11.7391304,33.2608696 C11.7391304,34.3369565 12.6195652,35.2173913 13.6956522,35.2173913 L35.2173913,35.2173913 L43.0434783,43.0434783 L43.0434783,13.6956522 C43.0434783,12.6195652 42.1630435,11.7391304 41.0869565,11.7391304 Z M33.2608696,23.4782609 L33.2608696,5.86956522 C33.2608696,4.79347826 32.3804348,3.91304348 31.3043478,3.91304348 L5.86956522,3.91304348 C4.79347826,3.91304348 3.91304348,4.79347826 3.91304348,5.86956522 L3.91304348,33.2608696 L11.7391304,25.4347826 L31.3043478,25.4347826 C32.3804348,25.4347826 33.2608696,24.5543478 33.2608696,23.4782609 Z" id="Shape" fill="#00A2BA" fill-rule="nonzero"></path>
                    <path d="M33.2608696,23.4782609 L33.2608696,5.86956522 C33.2608696,4.79347826 32.3804348,3.91304348 31.3043478,3.91304348 L5.86956522,3.91304348 C4.79347826,3.91304348 3.91304348,4.79347826 3.91304348,5.86956522 L3.91304348,33.2608696 L11.7391304,25.4347826 L31.3043478,25.4347826 C32.3804348,25.4347826 33.2608696,24.5543478 33.2608696,23.4782609 Z" id="Path" fill="#6ED2E1"></path>
                </g>
            </g>
        </g>
    </g>
</svg>