<svg xmlns="http://www.w3.org/2000/svg" width="205" height="80" viewBox="0 0 205 80">
    <g fill="none" fill-rule="evenodd">
        <path fill="#FFF" fill-opacity="0" d="M0 0h205v80H0z"/>
        <path fill="#7FD16B" d="M51.776 21.872l3.772 3.772a1.2 1.2 0 0 1 0 1.697L40.274 42.614l-5.469-5.469L50.08 21.872a1.2 1.2 0 0 1 1.697 0z"/>
        <path fill="#BBECB0" d="M21.098 32.566l3.778-3.778a1.2 1.2 0 0 1 1.697 0l13.844 13.855-11.102-.047-8.223-8.339a1.2 1.2 0 0 1 .006-1.69z"/>
        <g>
            <path fill="#78C5C8" d="M35.224 59.128l-3.772-3.772a1.2 1.2 0 0 1 0-1.697l15.274-15.273 5.469 5.469L36.92 59.128a1.2 1.2 0 0 1-1.697 0z"/>
            <path fill="#ADE8EC" d="M65.902 48.434l-3.778 3.778a1.2 1.2 0 0 1-1.697 0L46.583 38.357l11.102.047 8.223 8.339a1.2 1.2 0 0 1-.006 1.69z"/>
        </g>
        <text fill="#0A1650" font-family="Aller-Bold, Aller" font-size="30" font-weight="bold" letter-spacing="-.469">
            <tspan x="77" y="47">opquas</tspan> <tspan x="173.548" y="47" letter-spacing="-.439">t</tspan>
        </text>
    </g>
</svg>
