<svg xmlns="http://www.w3.org/2000/svg" width="15" height="15" viewBox="0 0 15 15">
    <g fill="#FFF" fill-rule="nonzero">
        <path d="M3.492 4.826H.48a.242.242 0 0 0-.242.242v9.674c0 .133.109.241.242.241h3.012a.242.242 0 0 0 .242-.241V5.068a.242.242 0 0 0-.242-.242zM1.987.017C.891.017 0 .906 0 2c0 1.095.891 1.986 1.987 1.986 1.095 0 1.986-.89 1.986-1.986C3.973.907 3.082.017 1.987.017zM11.151 4.585c-1.21 0-2.103.52-2.646 1.11v-.627a.242.242 0 0 0-.242-.242H5.38a.242.242 0 0 0-.241.242v9.674c0 .133.108.241.241.241h3.005a.242.242 0 0 0 .242-.241V9.955c0-1.613.438-2.241 1.563-2.241 1.224 0 1.321 1.007 1.321 2.324v4.704c0 .133.109.241.242.241h3.006a.242.242 0 0 0 .242-.241V9.435c0-2.398-.457-4.85-3.849-4.85z"/>
    </g>
</svg>
